# xmcd
#
# Track frame offsets: 
#        150
#        10967
#        22917
#        24920
#        39060
#        50997
#        65532
#        75390
#        87907
#        102195
#        118362
#        126525
#        140912
#        147195
#        158790
#        167587
#        179537
#        190842
#        204985
#
# Disc length: 2810 seconds
#
# Revision: 3
# Processed by: cddbd v1.4PL0 Copyright (c) Steve Scherf et al.
# Submitted via: ExactAudioCopy v0.90b4
#
DISCID=040af813
DTITLE=Michael Martin Murphey - Cowboy Christmas
DYEAR=1991
DGENRE=Country
TTITLE0=I Heard The Bells On Christmas Day/Old Time Christmas
TTITLE1=Jolly Old St. Nicholas/The Christmas Letter
TTITLE2=The Creak Of Leather
TTITLE3=Christmas On The Line (The Line Rider's Christmas)
TTITLE4=Sleigh Ride/Jingle Bells
TTITLE5=The Christmas Trail
TTITLE6=Merry Texas Christmas You All
TTITLE7=Ridin' Home On Christmas Eve
TTITLE8=Corn, Water And Wood
TTITLE9=The Cowboy Christmas Ball
TTITLE10=Polka Medley
TTITLE11=Christmas Cowboy Style
TTITLE12=The Santa Claus Schottissche
TTITLE13=Two-Step 'Round The Christmas Tree
TTITLE14=Two-Step Medley
TTITLE15=Log Cabin Home In The Sky
TTITLE16=Waltz Medley
TTITLE17=Pearls In The Snow
TTITLE18=Good Night Ladies/Auld Lang Syne
EXTD=
EXTT0=
EXTT1=
EXTT2=
EXTT3=
EXTT4=
EXTT5=
EXTT6=
EXTT7=
EXTT8=
EXTT9=
EXTT10=
EXTT11=
EXTT12=
EXTT13=
EXTT14=
EXTT15=
EXTT16=
EXTT17=
EXTT18=
PLAYORDER=
